Coordinates
version=1
nRows=29
nColumns=24
inDegrees=yes

Units are S.I. units (second, meters, Newtons, ...)
Angles are in degrees.

endheader
time	pelvis_tilt	pelvis_list	pelvis_rotation	pelvis_tx	pelvis_ty	pelvis_tz	hip_flexion_r	hip_adduction_r	hip_rotation_r	knee_angle_r	ankle_angle_r	subtalar_angle_r	mtp_angle_r	hip_flexion_l	hip_adduction_l	hip_rotation_l	knee_angle_l	ankle_angle_l	subtalar_angle_l	mtp_angle_l	lumbar_extension	lumbar_bending	lumbar_rotation
      2.28500000	     -7.83259511	     -1.96882525	     -2.16971483	      0.69649568	      1.26717782	     -0.92574498	      0.83612941	      6.05700827	      0.95991439	    -37.60976794	    -15.28568846	      9.33031739	     15.22162952	     27.70785524	      4.31973557	      7.69638523	    -15.82900093	     -5.73244614	    -15.43771036	      3.07213064	      0.46879790	     -0.36198409	     -0.81200341
      2.29000000	     -7.96593440	     -2.02721949	     -1.03078211	      0.70309758	      1.26738945	     -0.92745015	      1.55349753	      5.68873607	     -1.08998678	    -38.75949116	    -16.24416470	      8.98665762	     14.80006605	     27.58392916	      4.90927402	      8.94429851	    -16.13433095	     -5.28122900	    -15.33802823	      3.02885341	      0.67834055	     -0.47429078	     -1.99521153
      2.29500000	     -8.21896949	     -2.06054215	      0.08502832	      0.70961536	      1.26748146	     -0.92924814	      2.45467996	      5.23532061	     -3.10912132	    -40.01676173	    -17.01566939	      8.77281567	     13.35607190	     27.52915827	      5.53200077	     10.27301503	    -16.32634282	     -5.20310628	    -15.65488536	      2.72215646	      1.02412867	     -0.60143291	     -3.10078852
      2.30000000	     -8.35573042	     -2.17132244	      1.19891300	      0.71601690	      1.26771191	     -0.93099013	      3.18968313	      4.86430114	     -5.03072394	    -41.14618938	    -17.63408754	      8.17346107	     12.89559681	     27.35845797	      6.04314819	     11.46649792	    -16.55994068	     -4.72015236	    -15.51059303	      2.68882397	      1.21978056	     -0.64993774	     -4.25096794
      2.30500000	     -8.60277739	     -2.25959251	      2.26171092	      0.72236480	      1.26785738	     -0.93274311	      4.08836829	      4.42992537	     -6.86313390	    -42.35369142	    -18.03624705	      7.60658676	     11.63412472	     27.24885756	      6.56024563	     12.67241636	    -16.68665008	     -4.55565036	    -15.65247305	      2.41505263	      1.54617404	     -0.71889917	     -5.33371201
      2.31000000	     -8.78412507	     -2.39412833	      3.30290945	      0.72861051	      1.26808419	     -0.93445166	      4.90072337	      4.03823193	     -8.60827525	    -43.47940762	    -18.27350323	      6.83521007	     10.85113198	     27.06497824	      6.99650050	     13.78301927	    -16.81432288	     -4.19463980	    -15.57337856	      2.27389161	      1.78936961	     -0.73607777	     -6.40552228
      2.31500000	     -8.92443254	     -2.54666029	      4.31670956	      0.73479055	      1.26837081	     -0.93613110	      5.66273269	      3.65345840	    -10.27615091	    -44.54463998	    -18.30398545	      5.95531100	     10.53623526	     26.81551589	      7.38195406	     14.82795503	    -16.90571246	     -3.79173160	    -15.44405962	      2.22894116	      1.98496823	     -0.72456864	     -7.48033402
      2.32000000	     -9.08581992	     -2.70020838	      5.27089384	      0.74087858	      1.26866461	     -0.93775680	      6.47069802	      3.26539385	    -11.81783560	    -45.60387087	    -18.11077505	      4.98863267	     10.19675750	     26.56410790	      7.72620618	     15.82393792	    -16.94251376	     -3.50749846	    -15.31436825	      2.16083441	      2.20081000	     -0.70792009	     -8.48058714
      2.32500000	     -9.33262882	     -2.86959138	      6.14416950	      0.74697846	      1.26889967	     -0.93934106	      7.39213763	      2.87893180	    -13.23318609	    -46.65199024	    -17.86167931	      3.99714623	      9.19727721	     26.36945472	      8.02300683	     16.76452098	    -16.92386069	     -3.23554265	    -15.39804329	      1.79204198	      2.53187592	     -0.66539904	     -9.40789591
      2.33000000	     -9.49157798	     -3.04683448	      6.98816543	      0.75300052	      1.26924788	     -0.94084292	      8.20779149	      2.51287326	    -14.56680866	    -47.61080469	    -17.41655633	      2.96194522	      8.64604966	     26.07119767	      8.25955105	     17.61470844	    -16.88027845	     -2.88302161	    -15.24304697	      1.61904338	      2.75632388	     -0.60701286	    -10.33133432
      2.33500000	     -9.65501515	     -3.22158272	      7.76278768	      0.75898919	      1.26962004	     -0.94226919	      9.03860345	      2.14906344	    -15.78247870	    -48.51962151	    -16.82976814	      1.89342630	      8.21094353	     25.75093557	      8.45083742	     18.40199199	    -16.78155284	     -2.56782498	    -15.12933532	      1.44969447	      2.98582639	     -0.54099908	    -11.19345395
      2.34000000	     -9.78929184	     -3.39241499	      8.48930395	      0.76496150	      1.27004853	     -0.94362913	      9.83550061	      1.78953216	    -16.90881882	    -49.35758915	    -16.11750661	      0.84754131	      7.94383250	     25.37043394	      8.59740670	     19.12890652	    -16.62334337	     -2.24734513	    -14.99499675	      1.37477621	      3.19034114	     -0.46700648	    -12.03082245
      2.34500000	     -9.95649808	     -3.56153174	      9.13292507	      0.77091590	      1.27047720	     -0.94489490	     10.68894014	      1.44404955	    -17.89680433	    -50.15261895	    -15.31857736	     -0.23045267	      7.61127431	     25.00779288	      8.69776457	     19.77595206	    -16.42530466	     -1.96507674	    -14.88785483	      1.25104219	      3.43635864	     -0.38648113	    -12.77853596
      2.35000000	    -10.11064804	     -3.71362573	      9.70777801	      0.77684123	      1.27093133	     -0.94605426	     11.54041471	      1.10298705	    -18.76282994	    -50.89609037	    -14.41751861	     -1.27566275	      7.25540099	     24.61160695	      8.76389271	     20.34606394	    -16.18621808	     -1.70041223	    -14.77033340	      1.10214431	      3.66275617	     -0.31775472	    -13.46043242
      2.35500000	    -10.25115971	     -3.84527768	     10.20014372	      0.78275561	      1.27142522	     -0.94710654	     12.39187412	      0.76628405	    -19.50032146	    -51.58734696	    -13.44186864	     -2.27372571	      6.91905891	     24.17380364	      8.79183785	     20.84191009	    -15.89610383	     -1.45993909	    -14.65036610	      0.96242499	      3.87359352	     -0.25162354	    -14.08024584
      2.36000000	    -10.43276074	     -3.97985565	     10.60515027	      0.78875251	      1.27190196	     -0.94804992	     13.28758597	      0.46395008	    -20.11014839	    -52.19871281	    -12.42346808	     -3.23911735	      6.25640251	     23.75748254	      8.77204471	     21.22409233	    -15.57066651	     -1.17908030	    -14.56869957	      0.59542276	      4.15492361	     -0.18554262	    -14.56212473
      2.36500000	    -10.50941137	     -4.04336303	     10.94595986	      0.79467821	      1.27251331	     -0.94885701	     14.07968059	      0.13409133	    -20.59237619	    -52.75864037	    -11.29020794	     -4.08058874	      6.07561919	     23.17646203	      8.74134831	     21.53718088	    -15.14175627	     -0.98610815	    -14.42134796	      0.55091128	      4.28378978	     -0.16525652	    -15.00901625
      2.37000000	    -10.61676433	     -4.11803942	     11.23089195	      0.80063039	      1.27310010	     -0.94960537	     14.91114011	     -0.15756099	    -20.98021313	    -53.23856117	    -10.16989629	     -4.90783713	      5.87027095	     22.62195539	      8.67503183	     21.81711563	    -14.69829704	     -0.77923643	    -14.32731609	      0.48777516	      4.45627785	     -0.12506899	    -15.41837802
      2.37500000	    -10.81316211	     -4.21338836	     11.44832510	      0.80660491	      1.27357798	     -0.95031415	     15.86495410	     -0.41116551	    -21.25674393	    -53.67154401	     -9.12628091	     -5.70406780	      5.35097358	     22.16568063	      8.58345275	     22.08555107	    -14.25765613	     -0.59156230	    -14.31350149	      0.23713089	      4.74280415	     -0.05749423	    -15.80958675
      2.38000000	    -10.87751427	     -4.23384105	     11.58871774	      0.81262071	      1.27422888	     -0.95083164	     16.65392585	     -0.66609634	    -21.41586541	    -54.00506733	     -7.96750691	     -6.38375976	      5.16313211	     21.50488074	      8.46650564	     22.19125685	    -13.71136640	     -0.40366319	    -14.22845125	      0.17956452	      4.86857733	     -0.04899767	    -16.05996134
      2.38500000	    -10.95412817	     -4.24392336	     11.67187614	      0.81862165	      1.27484055	     -0.95128734	     17.47157636	     -0.89403187	    -21.46834074	    -54.27963212	     -6.83585361	     -7.01581385	      4.97208634	     20.84808534	      8.33770954	     22.27363992	    -13.14831869	     -0.23202305	    -14.17078773	      0.12094884	      4.99951169	     -0.03282734	    -16.27078990
      2.39000000	    -11.03580470	     -4.23338123	     11.68708000	      0.82464906	      1.27544368	     -0.95163635	     18.30254526	     -1.09866877	    -21.41508741	    -54.49094896	     -5.72827063	     -7.58477222	      4.75708744	     20.17451638	      8.19372550	     22.28592137	    -12.54752604	     -0.08924873	    -14.14265664	      0.05348189	      5.13767843	     -0.03305723	    -16.41273170
      2.39500000	    -11.11876483	     -4.17454196	     11.59026402	      0.83073260	      1.27604986	     -0.95181746	     19.15089216	     -1.28283525	    -21.18689676	    -54.64977129	     -4.68070182	     -8.00749149	      4.35416011	     19.44292060	      8.03703265	     22.16510774	    -11.84573981	     -0.00424486	    -14.20722305	     -0.07332094	      5.27439702	     -0.07099240	    -16.41652053
      2.40000000	    -11.15391446	     -4.12519008	     11.48379384	      0.83678448	      1.27666218	     -0.95198933	     19.93643194	     -1.41839232	    -20.92929751	    -54.71515287	     -3.64875105	     -8.39871038	      4.01773455	     18.67094477	      7.86191271	     22.08139805	    -11.16401527	      0.09685383	    -14.23341855	     -0.13689788	      5.35821488	     -0.07519704	    -16.43195626
      2.40500000	    -11.18380497	     -4.05607311	     11.33466426	      0.84287793	      1.27724400	     -0.95206756	     20.70778302	     -1.53581589	    -20.61667683	    -54.70455252	     -2.64955321	     -8.76400840	      3.80543056	     17.88283601	      7.68672203	     21.89798934	    -10.46821207	      0.20254420	    -14.25018728	     -0.16226870	      5.43870026	     -0.10086468	    -16.39213420
      2.41000000	    -11.19702500	     -3.97460882	     11.11898895	      0.84895047	      1.27782124	     -0.95205162	     21.47090064	     -1.59859824	    -20.17959422	    -54.62159000	     -1.71602215	     -9.05395556	      3.61001414	     17.05449495	      7.49256986	     21.67554589	     -9.72698937	      0.28522953	    -14.27496199	     -0.16524826	      5.49268954	     -0.11855702	    -16.28380642
      2.41500000	    -11.18952588	     -3.88201746	     10.86410001	      0.85502693	      1.27836839	     -0.95196774	     22.20437114	     -1.62937589	    -19.68491823	    -54.46487947	     -0.83144349	     -9.30212869	      3.44377718	     16.20183875	      7.29685592	     21.38990726	     -8.98600682	      0.35728501	    -14.30025617	     -0.15019530	      5.52435492	     -0.13555320	    -16.12379614
      2.42000000	    -11.16413546	     -3.78515035	     10.56242122	      0.86108200	      1.27889588	     -0.95178336	     22.91853906	     -1.60404884	    -19.10428962	    -54.23210136	     -0.02081330	     -9.50340019	      3.29154558	     15.32121014	      7.08784209	     21.06000746	     -8.22528286	      0.42775249	    -14.31666269	     -0.10570318	      5.52757179	     -0.15616601	    -15.92173706
      2.42500000	    -11.12173760	     -3.68232474	     10.23231101	      0.86712225	      1.27937924	     -0.95155832	     23.60352903	     -1.54705162	    -18.47896935	    -53.92610636	      0.74135327	     -9.68401008	      3.17308968	     14.42983393	      6.88505747	     20.67364419	     -7.48172308	      0.49991853	    -14.31610463	     -0.04799260	      5.51621692	     -0.16729592	    -15.67737006
